<svg id="visual" viewBox="0 0 960 540" xmlns="http://www.w3.org/2000/svg" xmlns:xlink="http://www.w3.org/1999/xlink" version="1.1"><path d="M0 501L14.5 490.2C29 479.3 58 457.7 87.2 444.5C116.3 431.3 145.7 426.7 174.8 425.2C204 423.7 233 425.3 262 428C291 430.7 320 434.3 349 401.8C378 369.3 407 300.7 436.2 312.2C465.3 323.7 494.7 415.3 523.8 440.5C553 465.7 582 424.3 611 391.2C640 358 669 333 698 310.7C727 288.3 756 268.7 785.2 282.8C814.3 297 843.7 345 872.8 374.8C902 404.7 931 416.3 945.5 422.2L960 428L960 541L945.5 541C931 541 902 541 872.8 541C843.7 541 814.3 541 785.2 541C756 541 727 541 698 541C669 541 640 541 611 541C582 541 553 541 523.8 541C494.7 541 465.3 541 436.2 541C407 541 378 541 349 541C320 541 291 541 262 541C233 541 204 541 174.8 541C145.7 541 116.3 541 87.2 541C58 541 29 541 14.5 541L0 541Z" fill="#060607"></path><path d="M0 347L14.5 373.5C29 400 58 453 87.2 466C116.3 479 145.7 452 174.8 433.7C204 415.3 233 405.7 262 417.8C291 430 320 464 349 474.7C378 485.3 407 472.7 436.2 469.2C465.3 465.7 494.7 471.3 523.8 446.2C553 421 582 365 611 343C640 321 669 333 698 354.7C727 376.3 756 407.7 785.2 410.2C814.3 412.7 843.7 386.3 872.8 394.5C902 402.7 931 445.3 945.5 466.7L960 488L960 541L945.5 541C931 541 902 541 872.8 541C843.7 541 814.3 541 785.2 541C756 541 727 541 698 541C669 541 640 541 611 541C582 541 553 541 523.8 541C494.7 541 465.3 541 436.2 541C407 541 378 541 349 541C320 541 291 541 262 541C233 541 204 541 174.8 541C145.7 541 116.3 541 87.2 541C58 541 29 541 14.5 541L0 541Z" fill="#111114"></path><path d="M0 489L14.5 474.2C29 459.3 58 429.7 87.2 430.7C116.3 431.7 145.7 463.3 174.8 485.8C204 508.3 233 521.7 262 513.7C291 505.7 320 476.3 349 451.3C378 426.3 407 405.7 436.2 412.8C465.3 420 494.7 455 523.8 475.2C553 495.3 582 500.7 611 502C640 503.3 669 500.7 698 481.2C727 461.7 756 425.3 785.2 430.8C814.3 436.3 843.7 483.7 872.8 488.8C902 494 931 457 945.5 438.5L960 420L960 541L945.5 541C931 541 902 541 872.8 541C843.7 541 814.3 541 785.2 541C756 541 727 541 698 541C669 541 640 541 611 541C582 541 553 541 523.8 541C494.7 541 465.3 541 436.2 541C407 541 378 541 349 541C320 541 291 541 262 541C233 541 204 541 174.8 541C145.7 541 116.3 541 87.2 541C58 541 29 541 14.5 541L0 541Z" fill="#19181d"></path></svg>