<svg id="visual" viewBox="0 0 960 540" xmlns="http://www.w3.org/2000/svg" xmlns:xlink="http://www.w3.org/1999/xlink" version="1.1"><path d="M0 389L120 349L240 396L360 392L480 427L600 364L720 350L840 365L960 377L960 541L840 541L720 541L600 541L480 541L360 541L240 541L120 541L0 541Z" fill="#060607"></path><path d="M0 449L120 400L240 419L360 460L480 413L600 412L720 413L840 427L960 425L960 541L840 541L720 541L600 541L480 541L360 541L240 541L120 541L0 541Z" fill="#141417"></path><path d="M0 466L120 508L240 510L360 475L480 501L600 473L720 489L840 474L960 474L960 541L840 541L720 541L600 541L480 541L360 541L240 541L120 541L0 541Z" fill="#19181d"></path></svg>