<svg id="visual" viewBox="0 0 960 540" xmlns="http://www.w3.org/2000/svg" xmlns:xlink="http://www.w3.org/1999/xlink" version="1.1"><path d="M0 376L120 329L240 375L360 330L480 329L600 388L720 308L840 329L960 365L960 541L840 541L720 541L600 541L480 541L360 541L240 541L120 541L0 541Z" fill="#060607"></path><path d="M0 430L120 446L240 476L360 414L480 421L600 415L720 473L840 475L960 409L960 541L840 541L720 541L600 541L480 541L360 541L240 541L120 541L0 541Z" fill="#141417"></path><path d="M0 470L120 489L240 452L360 522L480 502L600 491L720 488L840 479L960 480L960 541L840 541L720 541L600 541L480 541L360 541L240 541L120 541L0 541Z" fill="#19181d"></path></svg>