<svg id="visual" viewBox="0 0 960 540" xmlns="http://www.w3.org/2000/svg" xmlns:xlink="http://www.w3.org/1999/xlink" version="1.1"><path d="M0 174L7 161.7C14 149.3 28 124.7 41.8 152C55.7 179.3 69.3 258.7 83.2 263.2C97 267.7 111 197.3 125 176.3C139 155.3 153 183.7 167 165.8C181 148 195 84 208.8 72.7C222.7 61.3 236.3 102.7 250.2 164.8C264 227 278 310 292 322.7C306 335.3 320 277.7 334 231.7C348 185.7 362 151.3 375.8 165.2C389.7 179 403.3 241 417.2 237.3C431 233.7 445 164.3 459 155C473 145.7 487 196.3 501 223.3C515 250.3 529 253.7 542.8 237.3C556.7 221 570.3 185 584.2 206.3C598 227.7 612 306.3 626 317C640 327.7 654 270.3 668 224C682 177.7 696 142.3 709.8 124.7C723.7 107 737.3 107 751.2 116.2C765 125.3 779 143.7 793 153.2C807 162.7 821 163.3 835 177.5C849 191.7 863 219.3 876.8 235C890.7 250.7 904.3 254.3 918.2 259C932 263.7 946 269.3 953 272.2L960 275L960 0L953 0C946 0 932 0 918.2 0C904.3 0 890.7 0 876.8 0C863 0 849 0 835 0C821 0 807 0 793 0C779 0 765 0 751.2 0C737.3 0 723.7 0 709.8 0C696 0 682 0 668 0C654 0 640 0 626 0C612 0 598 0 584.2 0C570.3 0 556.7 0 542.8 0C529 0 515 0 501 0C487 0 473 0 459 0C445 0 431 0 417.2 0C403.3 0 389.7 0 375.8 0C362 0 348 0 334 0C320 0 306 0 292 0C278 0 264 0 250.2 0C236.3 0 222.7 0 208.8 0C195 0 181 0 167 0C153 0 139 0 125 0C111 0 97 0 83.2 0C69.3 0 55.7 0 41.8 0C28 0 14 0 7 0L0 0Z" fill="#111013"></path><path d="M0 39L7 57.8C14 76.7 28 114.3 41.8 144.5C55.7 174.7 69.3 197.3 83.2 186.2C97 175 111 130 125 107.8C139 85.7 153 86.3 167 92.7C181 99 195 111 208.8 106C222.7 101 236.3 79 250.2 68.7C264 58.3 278 59.7 292 69.7C306 79.7 320 98.3 334 102.3C348 106.3 362 95.7 375.8 105.7C389.7 115.7 403.3 146.3 417.2 168.5C431 190.7 445 204.3 459 217.3C473 230.3 487 242.7 501 223.3C515 204 529 153 542.8 148.3C556.7 143.7 570.3 185.3 584.2 188C598 190.7 612 154.3 626 134.2C640 114 654 110 668 109.3C682 108.7 696 111.3 709.8 124.5C723.7 137.7 737.3 161.3 751.2 181.3C765 201.3 779 217.7 793 199.5C807 181.3 821 128.7 835 114.3C849 100 863 124 876.8 128.5C890.7 133 904.3 118 918.2 94.3C932 70.7 946 38.3 953 22.2L960 6L960 0L953 0C946 0 932 0 918.2 0C904.3 0 890.7 0 876.8 0C863 0 849 0 835 0C821 0 807 0 793 0C779 0 765 0 751.2 0C737.3 0 723.7 0 709.8 0C696 0 682 0 668 0C654 0 640 0 626 0C612 0 598 0 584.2 0C570.3 0 556.7 0 542.8 0C529 0 515 0 501 0C487 0 473 0 459 0C445 0 431 0 417.2 0C403.3 0 389.7 0 375.8 0C362 0 348 0 334 0C320 0 306 0 292 0C278 0 264 0 250.2 0C236.3 0 222.7 0 208.8 0C195 0 181 0 167 0C153 0 139 0 125 0C111 0 97 0 83.2 0C69.3 0 55.7 0 41.8 0C28 0 14 0 7 0L0 0Z" fill="#19181d"></path></svg>