<svg id="visual" viewBox="0 0 960 540" xmlns="http://www.w3.org/2000/svg" xmlns:xlink="http://www.w3.org/1999/xlink" version="1.1"><path d="M0 321L10 306.8C20 292.7 40 264.3 60 268.3C80 272.3 100 308.7 120 338.3C140 368 160 391 180 391.3C200 391.7 220 369.3 240 383.7C260 398 280 449 300 457.3C320 465.7 340 431.3 360 398.3C380 365.3 400 333.7 420 289.8C440 246 460 190 480 209.2C500 228.3 520 322.7 540 343C560 363.3 580 309.7 600 305.5C620 301.3 640 346.7 660 388C680 429.3 700 466.7 720 482.2C740 497.7 760 491.3 780 487.5C800 483.7 820 482.3 840 447.7C860 413 880 345 900 310.5C920 276 940 275 950 274.5L960 274L960 541L950 541C940 541 920 541 900 541C880 541 860 541 840 541C820 541 800 541 780 541C760 541 740 541 720 541C700 541 680 541 660 541C640 541 620 541 600 541C580 541 560 541 540 541C520 541 500 541 480 541C460 541 440 541 420 541C400 541 380 541 360 541C340 541 320 541 300 541C280 541 260 541 240 541C220 541 200 541 180 541C160 541 140 541 120 541C100 541 80 541 60 541C40 541 20 541 10 541L0 541Z" fill="#060607" stroke-linecap="round" stroke-linejoin="miter"></path></svg>