<svg id="visual" viewBox="0 0 960 540" xmlns="http://www.w3.org/2000/svg" xmlns:xlink="http://www.w3.org/1999/xlink" version="1.1"><path d="M0 373L26.7 381.2C53.3 389.3 106.7 405.7 160 416.3C213.3 427 266.7 432 320 426.8C373.3 421.7 426.7 406.3 480 392C533.3 377.7 586.7 364.3 640 367.2C693.3 370 746.7 389 800 402.2C853.3 415.3 906.7 422.7 933.3 426.3L960 430L960 541L933.3 541C906.7 541 853.3 541 800 541C746.7 541 693.3 541 640 541C586.7 541 533.3 541 480 541C426.7 541 373.3 541 320 541C266.7 541 213.3 541 160 541C106.7 541 53.3 541 26.7 541L0 541Z" fill="#19181d" stroke-linecap="round" stroke-linejoin="miter"></path></svg>